<svg width="1200" height="1600" viewBox="0 0 1200 1600" fill="none" xmlns="http://www.w3.org/2000/svg">
  <rect width="1200" height="1600" fill="#F4F4F5"/>
  <rect x="120" y="120" width="960" height="1280" rx="18" fill="#FFFFFF"/>
  <circle cx="820" cy="390" r="160" fill="#FFE1E7"/>
  <path d="M390 410C390 327.157 457.157 260 540 260C622.843 260 690 327.157 690 410V1320H390V410Z" fill="#E4E4E7"/>
  <path d="M300 560C300 488.203 358.203 430 430 430H800C871.797 430 930 488.203 930 560V1320H300V560Z" fill="#FF516D" fill-opacity="0.16"/>
  <path d="M450 430H690L640 760H500L450 430Z" fill="#FFFFFF"/>
  <rect x="380" y="890" width="460" height="36" rx="18" fill="#D4D4D8"/>
  <rect x="430" y="970" width="360" height="28" rx="14" fill="#E4E4E7"/>
  <text x="600" y="1465" text-anchor="middle" font-family="Arial, Helvetica, sans-serif" font-size="44" font-weight="700" fill="#71717A">commerce image</text>
</svg>
